<?xml version="1.0" standalone="no"?>
<!DOCTYPE svg PUBLIC "-//W3C//DTD SVG 20010904//EN"
 "http://www.w3.org/TR/2001/REC-SVG-20010904/DTD/svg10.dtd">
<svg version="1.0" xmlns="http://www.w3.org/2000/svg"
 width="1024.000000pt" height="1068.000000pt" viewBox="0 0 1024.000000 1068.000000"
 preserveAspectRatio="xMidYMid meet">
<metadata>
Created by potrace 1.16, written by Peter Selinger 2001-2019
</metadata>
<g transform="translate(0.000000,1068.000000) scale(0.100000,-0.100000)"
fill="#000000" stroke="none">
<path d="M4530 7419 c-402 -27 -773 -180 -1097 -453 -126 -106 -188 -146 -226
-146 -18 0 -49 14 -78 35 -27 19 -54 35 -59 35 -17 0 -60 -31 -60 -44 0 -13
41 -69 152 -212 80 -102 291 -381 337 -446 31 -44 43 -50 75 -38 31 11 35 39
19 115 -8 32 -11 73 -7 90 28 128 221 339 421 459 210 125 426 185 668 185
105 1 278 -22 350 -45 263 -85 407 -275 422 -554 12 -225 -65 -376 -275 -543
-163 -130 -304 -211 -767 -443 -356 -179 -408 -207 -550 -298 -442 -281 -729
-655 -804 -1046 -27 -143 -45 -383 -31 -410 18 -33 49 -24 99 29 38 41 55 51
101 60 39 8 453 11 1456 9 1373 -3 1402 -3 1423 -22 12 -11 31 -37 43 -57 21
-38 55 -56 73 -38 12 12 20 551 10 685 l-7 95 -31 -3 c-28 -3 -32 -8 -43 -53
-9 -32 -24 -60 -43 -76 -25 -24 -40 -28 -123 -34 -51 -3 -574 -5 -1163 -3
l-1070 3 3 35 c5 61 84 209 152 282 142 156 431 336 845 528 551 255 810 419
989 627 171 198 236 377 236 649 0 266 -68 484 -203 646 -147 178 -336 293
-580 353 -211 52 -379 63 -657 44z"/>
<path d="M5720 7306 c0 -3 33 -32 73 -64 106 -87 182 -185 252 -326 34 -66 65
-120 70 -119 6 1 17 -4 25 -12 27 -23 62 -28 201 -30 75 -1 140 -5 146 -8 5
-3 109 -9 230 -13 217 -7 222 -6 257 15 24 15 36 30 36 45 0 12 4 26 10 32 5
5 12 23 14 39 6 37 19 84 42 153 13 40 15 62 8 88 -8 32 -16 38 -78 65 -92 38
-240 65 -491 89 -133 12 -290 28 -405 40 -85 10 -390 14 -390 6z"/>
<path d="M7423 6967 c-11 -23 -24 -58 -28 -77 -4 -19 -11 -39 -15 -45 -14 -19
-42 -184 -36 -209 4 -15 20 -33 38 -42 l31 -16 -6 -72 c-8 -88 2 -106 59 -111
65 -7 245 19 288 41 36 17 41 25 58 84 10 36 20 72 23 80 30 101 24 129 -35
151 -70 25 -140 49 -193 63 -71 20 -97 49 -97 108 0 35 -6 54 -20 68 -30 30
-44 25 -67 -23z"/>
<path d="M8730 6809 c-58 -10 -162 -28 -232 -38 -277 -43 -304 -60 -347 -218
-11 -40 -22 -77 -25 -82 -13 -20 36 -44 121 -56 48 -7 92 -10 97 -7 10 6 18 7
91 16 73 10 94 14 107 22 7 5 21 7 31 6 9 -2 17 2 17 8 0 7 8 9 20 5 22 -7 79
20 99 47 7 11 20 17 28 14 20 -8 43 18 96 109 38 67 87 173 87 190 0 10 -88 2
-190 -16z"/>
<path d="M8523 6341 c-3 -11 -17 -22 -31 -26 -15 -4 -35 -15 -44 -25 -13 -14
-60 -28 -120 -34 -3 -1 -10 -5 -15 -10 -5 -5 -3 -6 5 -2 6 4 12 3 12 -2 0 -12
-24 -22 -50 -22 -11 0 -31 -11 -46 -25 -15 -14 -33 -25 -41 -25 -8 0 -40 -12
-71 -26 -132 -59 -163 -79 -177 -109 -23 -50 -55 -157 -50 -166 3 -4 0 -11 -6
-15 -6 -3 -9 -19 -5 -35 3 -16 1 -31 -6 -35 -7 -4 0 -12 17 -21 25 -14 32 -12
120 33 145 74 267 166 420 319 178 177 238 262 160 227 -21 -10 -27 -9 -31 3
-9 21 -35 19 -41 -4z"/>
<path d="M6375 6249 c-22 -4 -48 -5 -57 -3 -10 3 -18 1 -18 -5 0 -6 -13 -11
-29 -11 -44 0 -80 -17 -90 -42 -5 -13 -19 -68 -31 -123 -13 -55 -43 -158 -67
-228 -25 -71 -42 -131 -39 -134 2 -3 112 4 243 16 131 11 299 22 374 25 75 3
147 10 161 17 30 13 60 74 89 179 11 41 24 89 29 105 25 85 28 108 17 126 -14
23 -70 36 -182 44 -49 3 -130 12 -180 20 -125 19 -174 22 -220 14z"/>
<path d="M7228 6188 c-48 -13 -60 -29 -87 -118 -12 -41 -29 -90 -37 -108 -8
-18 -14 -39 -14 -46 0 -7 -12 -49 -26 -92 -32 -98 -29 -167 7 -197 22 -18 37
-19 209 -15 179 5 240 15 240 39 0 7 11 35 25 63 24 50 63 180 72 241 7 46
-14 64 -92 79 -38 8 -95 27 -125 43 l-54 28 3 48 3 47 -44 -1 c-24 -1 -60 -5
-80 -11z"/>
</g>
</svg>
